<svg width="100%" height="100%" id="svg" viewBox="0 0 1440 590" xmlns="http://www.w3.org/2000/svg" class="transition duration-300 ease-in-out delay-150"><defs><linearGradient id="gradient" x1="35%" y1="2%" x2="65%" y2="98%"><stop offset="5%" stop-color="#d1495b"></stop><stop offset="95%" stop-color="#00798c"></stop></linearGradient></defs><path d="M 0,600 C 0,600 0,200 0,200 C 107.59808612440187,180.08612440191388 215.19617224880375,160.17224880382773 305,155 C 394.80382775119625,149.82775119617227 466.8133971291867,159.3971291866029 554,188 C 641.1866028708133,216.6028708133971 743.5502392344498,264.2392344497608 840,273 C 936.4497607655502,281.7607655502392 1026.9856459330144,251.64593301435406 1126,233 C 1225.0143540669856,214.35406698564594 1332.5071770334928,207.17703349282297 1440,200 C 1440,200 1440,600 1440,600 Z" stroke="none" stroke-width="0" fill="url(#gradient)" fill-opacity="0.53" class="transition-all duration-300 ease-in-out delay-150 path-0"></path><defs><linearGradient id="gradient" x1="35%" y1="2%" x2="65%" y2="98%"><stop offset="5%" stop-color="#d1495b"></stop><stop offset="95%" stop-color="#00798c"></stop></linearGradient></defs><path d="M 0,600 C 0,600 0,400 0,400 C 72.58373205741626,391.1004784688995 145.1674641148325,382.20095693779905 259,376 C 372.8325358851675,369.79904306220095 527.9138755980862,366.29665071770336 622,359 C 716.0861244019138,351.70334928229664 749.1770334928228,340.6124401913876 836,357 C 922.8229665071772,373.3875598086124 1063.377990430622,417.25358851674645 1173,429 C 1282.622009569378,440.74641148325355 1361.311004784689,420.37320574162675 1440,400 C 1440,400 1440,600 1440,600 Z" stroke="none" stroke-width="0" fill="url(#gradient)" fill-opacity="1" class="transition-all duration-300 ease-in-out delay-150 path-1"></path></svg>